<?xml version="1.0"?>
<svg version="1.1" xmlns="http://www.w3.org/2000/svg" width="400" height="60" style=""><path fill="#2d157d" d="M26.844,40.652q-0.672,1.036-0.672,1.344t0.252,0.448q0,0.028-0.504,0.42q-0.448,0.224-1.008,0.224t-0.812-0.126t-0.168-0.406q0.392-1.26,2.94-5.054t3.416-5.362q1.876-3.388,1.876-5.404q0-0.84-0.28-1.428q-0.56-1.148-2.66-1.148q-3.276,0-6.776,2.828q-2.8,2.268-4.284,4.802t-1.484,4.522q0,2.856,2.52,2.912l0.224,0q3.22,0,4.984-2.324q0.672-0.924,0.672-1.568t-0.28-0.812q-0.028-0.028-0.028-0.112t0.168-0.084q0.728,0,0.728,0.952q0,0.588-0.574,1.596t-2.03,1.904t-3.388,0.896t-3.08-1.204t-1.148-3.164q0-4.424,5.768-9.044q1.484-1.176,3.906-1.932t4.634-0.756t3.01,0.77t0.798,2.058q0,1.96-1.596,5.292q-0.504,1.036-2.268,3.78l2.156-2.744q1.568-2.044,5.432-5.824q0.84-0.812,1.862-1.358t1.75-0.546q1.008,0,1.008,1.064q0,0.924-0.882,2.786t-1.778,3.528t-1.092,2.184t-0.28,0.826t-0.112,0.336q0.084-0.14,1.848-2.142t5.208-4.998l4.48-3.696q0.532-0.448,0.952-0.448t0.686,0.7t0.266,1.134t-1.344,1.806q-3.5,3.584-5.936,7.84t-2.436,6.076q0,0.476,0.168,0.658t0.532,0.112t1.526-0.574t1.526-0.588q0.14,0.056,0.14,0.14q0,0.42-1.47,1.176t-2.212,0.756t-0.91-0.252q-0.504-0.728-0.504-1.764q0-2.408,2.576-6.916q1.652-2.828,5.096-7.616q-2.688,2.184-7.28,6.692t-6.02,7.056q-0.728,1.316-1.764,1.316q-0.476,0-0.476-0.336q0-0.112,0.574-1.008t2.534-4.2q4.816-8.372,4.816-10.08q0-0.448-0.308-0.448q-0.448,0-1.316,0.756q-3.108,2.604-6.608,6.804t-5.264,6.972z M55.88476,41.968q-0.14,0.028-0.602,0.028t-0.924-0.364t-0.462-0.938t0.21-1.274t0.294-1.064q-3.22,3.752-5.04,3.752q-1.148,0-1.26-1.428l0-0.196q0-1.204,1.456-3.248q-0.812,0.728-1.652,1.68q-0.112,0.112-0.28,0.112q-0.112,0-0.112-0.14t0.252-0.476l3.864-4.536q0.728-0.84,1.484-0.84t0.756,0.504q0,0.196-0.168,0.364q-1.12,1.036-2.814,3.444t-1.694,3.556q0,0.504,0.336,0.504q1.176,0,3.416-2.324q0.784-0.784,2.912-3.458t2.8-2.674q1.008,0,1.008,0.784q0,0.28-1.176,1.624q-1.596,1.932-2.436,3.15t-0.84,1.974t0.42,0.756q0.196,0,0.448-0.112q1.932-0.84,4.62-3.92q0.168-0.196,0.336-0.196t0.168,0.182t-0.196,0.406q-1.204,1.4-2.828,2.814t-2.296,1.554z M67.69152,30.6q0.378,0.28,0.378,0.63t-0.35,0.616t-0.77,0.266t-0.77-0.294t-0.35-0.686q0-0.812,1.064-0.812q0.42,0,0.798,0.28z M66.36152,34.184q0,0.168-2.212,3.976q-2.156,4.116-3.332,5.74q-2.548,3.64-4.788,3.64q-0.84,0-1.554-0.546t-0.714-1.092t0.252-0.546q0.028,0,0.574,0.714t1.274,0.714q2.24,0,5.096-5.068q1.764-3.164,2.408-5.124q-0.336,0.392-1.162,1.148t-1.008,0.756t-0.182-0.084q0-0.252,0.448-0.644t1.204-1.484t0.896-1.204l0.924-0.98q0.56-0.532,1.218-0.532t0.658,0.616z M75.35428,32.784l4.032-0.056q0.084,0.056,0.084,0.084q0,0.252-3.486,0.7t-3.766,0.532q-0.532,0.476-1.96,2.842t-1.428,3.458q0,1.036,1.428,1.036q0.672,0,1.764-0.42t1.68-0.784q1.568-0.98,3.36-2.884q0.392-0.392,0.532-0.392q0.084,0,0.084,0.168t-0.42,0.672q-1.456,1.792-3.276,2.884q-2.184,1.344-4.172,1.344q-0.868,0-1.414-0.378t-0.546-1.526t1.008-3.15t1.54-2.982q-0.392,0.084-0.672,0.084q-0.812,0-0.812-0.644q0-0.476,0.672-0.672q0.084,0,0.252-0.028l1.624,0q0.504-0.644,1.148-1.484q0.784-1.008,1.064-1.008t0.7,0.224t0.42,0.532t-1.344,1.82q0.728,0.028,1.904,0.028z M86.89504,33.428l0.392-0.084q0.308,0,0.588,0.252t0.28,0.392t-1.736,2.702t-1.736,3.57q0,0.084,0.028,0.168q0.14,0.644,0.616,0.644q1.456,0,5.32-4.816q0.084-0.112,0.196-0.112t0.112,0.21t-0.252,0.546q-3.584,4.788-5.46,4.788q-0.252,0-0.476-0.084q-1.232-0.476-1.232-1.848q0-0.476,0.112-0.952l-1.736,1.68q-1.652,1.456-2.394,1.456t-1.414-0.476q-0.756-0.56-0.756-1.484q0-2.044,2.856-4.886t5.236-2.842q0.924,0,1.232,0.644q0.084,0.224,0.14,0.378t0.084,0.154z M78.52304,40.316q0,1.008,0.7,1.008q1.624,0,4.424-3.556l2.968-4.088q-0.224-0.392-0.728-0.392q-1.708,0-4.536,2.646t-2.828,4.382z M96.7558,34.828q0-1.904,1.176-1.904q0.112,0,0.252,0.028q0.476,0.084,0.476,0.728t-0.224,1.624q-0.224,0.728-0.308,1.092q0.084,0.476,0.462,1.218t1.036,0.742t1.47-0.896q0.168-0.196,0.322-0.196t0.168,0.182t-0.21,0.49q-0.868,1.036-1.82,1.036q-1.372,0-2.212-2.016q-0.868,1.988-2.464,3.43t-3.164,1.442q-1.484,0-1.484-2.24q0-1.764,3.29-6.496t5.026-4.732q0.364,0,0.658,0.224t0.294,0.532q0-0.028-0.406,0.42t-2.212,2.408t-3.542,4.312t-1.736,3.64q0,0.336,0.182,0.728t0.602,0.392q1.232,0,2.884-1.904q1.372-1.68,1.68-2.828q-0.196-0.588-0.196-1.456z M109.13656,35.864q0,0.98-1.876,3.276q-2.212,2.716-3.78,2.716l-0.448,0q-0.728,0-1.148-0.756q-0.336-0.532-0.336-1.176q0-1.68,2.45-4.718t3.962-3.038q1.428,0,1.428,1.512q0,0.392-0.14,1.008q0.028,0.084,0.532,0.084t1.54-0.532q-0.028,0.476-2.212,1.372q0.028,0.112,0.028,0.252z M107.31656,34.408q-0.952,0-2.702,2.24t-1.75,3.304t0.672,1.064q1.204,0,3.052-2.184t1.848-3.136q-0.448-0.252-1.12-1.288z"/><path fill="#" d=""/></svg>
